<svg xmlns="http://www.w3.org/2000/svg" viewBox="0 0 512 512" fill="#6c757d" width="512" height="512">
    <path d="M164.1 328.2c16.9-2.9 33.2-7.4 48.7-13.3-4.8-11-9-22.3-12.4-33.7-11.5-38-15.1-76.8-10.8-114.2-15.2-4.8-30.8-8.5-46.8-11-16.5-2.6-33.4 2.2-45.2 13-5.8 5.2-9.9 11.4-12.1 18-1.8 33.5 1.6 74.3 18.5 117 11.2 15.6 29.8 25.1 49.6 25.1 3.5 0 7-.3 10.5-.9zm240.8-208.9c-2.7-8.9-9.4-16-18.2-19.3l-7.6-2.9c7.5 14.9 9.8 31.7 6.3 47.9-10.9 50.6-37.4 96.5-76.6 132.7-39.1 36.1-88 60.1-141.4 69.3-4.5.8-9.2 1.2-13.8 1.2-10.9 0-21.5-2.2-31.1-6.1 24 41.1 62.2 82.4 121.4 119.2 4.4 2.7 9.9 2.7 14.3 0 195.6-122.8 161.9-292.2 146.7-342zm-259.1 17.9c56.6 8.9 109.2 31.6 152.3 65.5 10.3 8.1 20 16.9 29 26.1 19.1-26 32.8-55.7 39.8-87.8 5-23.2-6.1-46.3-26.6-58.7l-77.4-29.5c-7.6-2.9-16-2.9-23.5 0L115.3 99.9c-8.7 3.3-15.5 10.5-18.2 19.4-2.4 7.8-5.2 18.6-7.5 31.6 15.7-11.8 36.2-16.9 56.2-13.7z"></path>
</svg>
